PathFileType  4	(X/Y/Z) C:\Users\antoi\Documents\MyRepositories\mobilecap\ResultsAnalysis
DataRate	CameraRate	NumFrames	NumMarkers	Units	OrigDataRate	OrigDataStartFrame	OrigNumFrames
100.0	100.0	4	51	mm	100.0	87	231
Frame#	Time	r_knee			r_shank_antsup			r_ankle			r_calc			r_5meta			r_toe			L_knee			L_shank_antsup			L_ankle			L_calc			L_5meta			L_toe			r_sh2			r_sh3			r_sh4			L_sh2			L_sh3			r_thigh1			r_thigh2			r_thigh3			r_thigh4			r_thigh5			L_thigh1			L_thigh2			L_thigh3			L_thigh4			r.ASIS			r.PSIS			L.ASIS			L.PSIS			C7			R_Shoulder			L_Shoulder			R_Sternum			L_Sternum			R_humerus			R_elbow_med			R_elbow_lat			R_forearm			R_wrist_radius			R_wrist_ulna			L_humerus			L_elbow_med			L_elbow_lat			L_forearm			L_wrist_radius			L_wrist_ulna			R_HJC			L_HJC			R_HJC_reg			L_HJC_reg			
		X1	Y1	Z1	X2	Y2	Z2	X3	Y3	Z3	X4	Y4	Z4	X5	Y5	Z5	X6	Y6	Z6	X7	Y7	Z7	X8	Y8	Z8	X9	Y9	Z9	X10	Y10	Z10	X11	Y11	Z11	X12	Y12	Z12	X13	Y13	Z13	X14	Y14	Z14	X15	Y15	Z15	X16	Y16	Z16	X17	Y17	Z17	X18	Y18	Z18	X19	Y19	Z19	X20	Y20	Z20	X21	Y21	Z21	X22	Y22	Z22	X23	Y23	Z23	X24	Y24	Z24	X25	Y25	Z25	X26	Y26	Z26	X27	Y27	Z27	X28	Y28	Z28	X29	Y29	Z29	X30	Y30	Z30	X31	Y31	Z31	X32	Y32	Z32	X33	Y33	Z33	X34	Y34	Z34	X35	Y35	Z35	X36	Y36	Z36	X37	Y37	Z37	X38	Y38	Z38	X39	Y39	Z39	X40	Y40	Z40	X41	Y41	Z41	X42	Y42	Z42	X43	Y43	Z43	X44	Y44	Z44	X45	Y45	Z45	X46	Y46	Z46	X47	Y47	Z47	X48	Y48	Z48	X49	Y49	Z49	X50	Y50	Z50	X51	Y51	Z51	

87	0.86000000	-482.76374	773.57594	-415.97177	-435.67555	683.42974	-416.00424	-470.37105	336.95035	-436.04226	-551.71442	324.23733	-496.56305	-387.56380	209.66701	-415.51646	-315.04675	237.60523	-460.44084	-537.39300	767.42141	-792.01784	-528.96948	680.19345	-815.33518	-489.77515	341.04733	-773.40844	-557.44258	317.34739	-697.36467	-402.52083	224.42696	-808.38904	-325.86723	248.09216	-766.80625	-447.50021	573.37051	-389.90425	-504.87451	696.48191	-386.95418	-530.37182	583.94717	-380.66869	-613.43332	671.04991	-785.72857	-585.92747	551.95503	-787.32410	-504.90432	1102.86914	-408.95204	-469.92907	999.09306	-411.98398	-512.00893	957.14929	-383.60674	-609.43925	1061.41928	-409.05704	-564.23971	955.94632	-403.79612	-515.14315	1066.20224	-798.57833	-480.08755	930.19426	-794.28599	-621.44829	1038.09233	-806.29336	-592.05432	903.94245	-803.13506	-525.63997	1300.00888	-468.90987	-706.17984	1311.52725	-530.58864	-532.43484	1300.94192	-715.57166	-710.91828	1315.11904	-641.92321	-552.21395	1858.70382	-572.88800	-502.75996	1824.84480	-430.41931	-533.48869	1829.96096	-717.59290	-458.63238	1735.09278	-548.19403	-462.03016	1732.43758	-608.44121	-563.03146	1766.93549	-302.03627	-740.14504	1654.06475	-224.42092	-720.67328	1735.70958	-187.46726	-571.07332	1675.44767	-130.83758	-480.32230	1653.95854	-133.33257	-505.16146	1633.85388	-101.08668	-603.68296	1784.71400	-821.24214	-733.71638	1587.06850	-902.22199	-726.55148	1660.18349	-953.28647	-649.10771	1657.64072	-975.51935	-480.72941	1626.72668	-975.19605	-489.46011	1603.89761	-1008.48259	-603.30179	1182.88340	-486.49663	-614.01348	1190.96531	-693.02200	-582.79924	1215.61734	-503.83395	-589.72055	1220.86370	-666.46185	
88	0.87000000	-468.86923	754.96794	-415.50492	-418.58721	666.52413	-415.09024	-440.93659	318.65850	-433.12469	-522.75807	304.34537	-491.85440	-354.59852	192.75822	-415.62446	-283.64503	222.95090	-461.40887	-524.35655	748.37239	-793.97048	-515.22538	661.31540	-817.39245	-469.39038	321.98825	-777.16415	-536.69435	297.91153	-700.86518	-379.85623	205.50728	-809.87657	-303.87247	231.47421	-768.30172	-426.62993	556.39293	-388.32556	-488.20975	677.17054	-386.11442	-509.78830	564.11992	-379.32559	-599.29147	650.78341	-787.10192	-569.96552	532.08618	-789.05153	-493.07142	1083.57921	-408.53462	-457.71496	979.87946	-411.88395	-499.94118	937.77091	-383.34260	-597.44590	1041.88676	-409.76323	-552.06534	936.57757	-403.94670	-503.39808	1047.46152	-799.48720	-467.59072	911.76462	-796.06714	-609.50189	1018.85249	-807.35561	-579.38085	884.89773	-804.62723	-514.14697	1280.50157	-469.20017	-694.82647	1291.59220	-531.06902	-521.28257	1281.55579	-715.76495	-699.76433	1295.32552	-642.31509	-538.54781	1839.34582	-573.78099	-490.09956	1805.91025	-431.28307	-519.49385	1811.31611	-717.99454	-446.08301	1715.29687	-548.59278	-449.22643	1712.60551	-608.73210	-557.09578	1752.61559	-304.55053	-747.55935	1655.00053	-235.40034	-720.91571	1733.48066	-195.83783	-578.74323	1657.45100	-139.46789	-490.46655	1626.73757	-141.85092	-517.69954	1608.58940	-110.28347	-595.48272	1772.02456	-818.71330	-744.60811	1586.10349	-893.59896	-734.77953	1658.79269	-944.77170	-658.77735	1652.02771	-970.44343	-492.47259	1610.34981	-974.68874	-503.60217	1588.28073	-1007.53623	-591.70024	1163.20205	-486.91484	-602.48052	1171.38434	-693.43260	-571.08127	1195.91441	-504.13185	-578.29706	1201.36968	-666.68280	
89	0.88000000	-454.33369	735.47149	-414.54557	-401.05698	648.68153	-414.55879	-412.98154	299.81190	-430.82937	-495.56687	283.58884	-487.36927	-322.83617	175.83697	-415.82579	-253.75676	208.50292	-463.07711	-510.74351	728.51089	-795.73122	-501.22853	641.79893	-819.60730	-449.33207	301.92137	-781.18483	-516.48230	278.15854	-704.89703	-357.99765	185.01044	-810.71119	-282.56962	213.21680	-769.70986	-405.83139	538.54143	-387.10230	-470.71514	657.21456	-385.27752	-487.87536	543.38824	-378.45254	-584.73065	630.10544	-788.52635	-554.02088	511.70363	-790.88742	-480.45582	1063.28536	-407.98679	-444.92877	959.64059	-411.65001	-487.03546	917.70855	-382.65820	-584.68641	1021.54341	-409.80712	-539.07464	916.28084	-403.47510	-491.18585	1028.13667	-800.16649	-454.64727	892.66296	-797.69248	-597.17497	998.82434	-808.25633	-566.19590	865.09954	-806.25266	-502.72835	1260.15711	-469.66124	-683.51640	1270.65376	-531.43177	-510.22715	1261.42909	-715.93938	-688.72014	1274.45411	-642.51047	-524.97834	1818.89946	-574.90070	-477.78443	1785.78835	-432.20978	-506.05723	1791.07522	-718.70654	-433.64751	1694.47314	-548.76102	-436.52851	1691.73427	-608.85853	-551.34694	1736.33474	-307.58092	-753.37981	1654.26574	-248.62354	-720.61603	1728.51194	-205.14095	-587.68849	1637.60537	-149.25678	-502.68824	1598.59144	-151.45223	-532.10348	1582.30219	-120.83151	-587.58328	1757.74838	-816.30300	-754.85777	1585.08454	-882.87439	-742.56338	1656.79948	-934.69523	-668.34391	1645.49875	-964.61638	-505.27762	1591.69184	-973.53599	-519.28294	1570.77050	-1005.35379	-579.93760	1142.59700	-487.34263	-590.94146	1150.92887	-693.84249	-559.33624	1175.50095	-504.48282	-566.94139	1181.05561	-666.83093	
90	0.89000000	-438.87013	715.08944	-414.00291	-382.72917	630.05476	-414.43180	-386.92129	280.51937	-429.17524	-470.44836	262.02092	-483.65548	-292.96848	158.59591	-416.04615	-225.93647	193.54153	-464.66603	-496.29725	708.09726	-797.69516	-486.51441	621.53324	-821.90043	-429.90314	280.81474	-785.22299	-497.02675	258.11603	-709.21658	-337.10445	163.44810	-811.39846	-262.05635	193.81623	-771.28079	-384.73166	519.94624	-386.35368	-452.09013	637.30786	-384.37196	-465.92308	522.38874	-377.63841	-569.41584	609.08343	-790.02830	-537.67722	490.95025	-792.84018	-467.06335	1042.20932	-407.42426	-431.37692	938.55257	-411.40113	-472.99396	897.08166	-381.68875	-571.13205	1000.30234	-409.25055	-525.01659	895.20973	-402.38577	-478.78687	1008.20017	-800.80689	-441.11729	872.91265	-799.29058	-584.57301	977.98448	-809.06911	-552.36556	844.50857	-808.09395	-491.61912	1239.11649	-470.12705	-672.42389	1248.83468	-531.58450	-499.38035	1240.45726	-715.96158	-677.92112	1252.53801	-642.64906	-511.70845	1797.32287	-576.26044	-465.71561	1764.51362	-433.20636	-493.27530	1769.41960	-719.57073	-421.38059	1672.63173	-548.76620	-424.17503	1669.70644	-609.13166	-545.45604	1717.90793	-311.39069	-757.24008	1651.17286	-264.77944	-719.67965	1720.37701	-216.11326	-597.76743	1616.04101	-160.20194	-516.48073	1569.53309	-162.05124	-547.90830	1554.91137	-132.65343	-579.70475	1741.95192	-813.62200	-763.84934	1583.50742	-869.64609	-749.27160	1653.62585	-922.71213	-677.67903	1637.15746	-956.69653	-519.17667	1570.54195	-971.90523	-536.19836	1551.00265	-1002.51128	-568.28550	1121.21417	-487.58419	-579.52499	1129.54486	-694.07153	-547.78790	1154.47656	-504.67661	-555.80744	1159.87993	-666.72218	
